<mxfile host="Electron" modified="2024-06-04T13:40:00.252Z" agent="Mozilla/5.0 (Windows NT 10.0; Win64; x64) AppleWebKit/537.36 (KHTML, like Gecko) draw.io/24.4.8 Chrome/124.0.6367.207 Electron/30.0.6 Safari/537.36" etag="IPgmEBS_eHnRx5bF6k5j" version="24.4.8" type="device">
  <diagram name="Страница — 1" id="KgpnrsMqIwY7Wp8qNeAr">
    <mxGraphModel dx="957" dy="482" grid="1" gridSize="10" guides="1" tooltips="1" connect="1" arrows="1" fold="1" page="1" pageScale="1" pageWidth="827" pageHeight="1169" math="0" shadow="0">
      <root>
        <mxCell id="0" />
        <mxCell id="1" parent="0" />
        <mxCell id="f7Zuc8apwFJZ10PAn6E1-8" value="" style="rounded=0;orthogonalLoop=1;jettySize=auto;html=1;exitX=0.5;exitY=0.5;exitDx=0;exitDy=0;exitPerimeter=0;endArrow=none;endFill=0;entryX=1;entryY=0.5;entryDx=0;entryDy=0;" parent="1" source="f7Zuc8apwFJZ10PAn6E1-1" target="f7Zuc8apwFJZ10PAn6E1-63" edge="1">
          <mxGeometry relative="1" as="geometry">
            <mxPoint x="490.0000000000002" y="-30" as="targetPoint" />
          </mxGeometry>
        </mxCell>
        <mxCell id="f7Zuc8apwFJZ10PAn6E1-70" style="rounded=0;orthogonalLoop=1;jettySize=auto;html=1;entryX=1;entryY=0.5;entryDx=0;entryDy=0;endArrow=none;endFill=0;exitX=0.5;exitY=0.5;exitDx=0;exitDy=0;exitPerimeter=0;" parent="1" source="f7Zuc8apwFJZ10PAn6E1-1" target="f7Zuc8apwFJZ10PAn6E1-68" edge="1">
          <mxGeometry relative="1" as="geometry" />
        </mxCell>
        <mxCell id="f7Zuc8apwFJZ10PAn6E1-1" value="Студент" style="shape=umlActor;verticalLabelPosition=bottom;verticalAlign=top;html=1;outlineConnect=0;" parent="1" vertex="1">
          <mxGeometry x="840" y="50" width="30" height="60" as="geometry" />
        </mxCell>
        <mxCell id="f7Zuc8apwFJZ10PAn6E1-75" style="rounded=0;orthogonalLoop=1;jettySize=auto;html=1;entryX=0;entryY=0.5;entryDx=0;entryDy=0;endArrow=none;endFill=0;exitX=0.5;exitY=0.5;exitDx=0;exitDy=0;exitPerimeter=0;" parent="1" source="f7Zuc8apwFJZ10PAn6E1-2" target="T0YTknENs9B_ywHw3JEK-2" edge="1">
          <mxGeometry relative="1" as="geometry" />
        </mxCell>
        <mxCell id="f7Zuc8apwFJZ10PAn6E1-91" style="rounded=0;orthogonalLoop=1;jettySize=auto;html=1;entryX=0;entryY=0.5;entryDx=0;entryDy=0;endArrow=none;endFill=0;exitX=0.5;exitY=0.5;exitDx=0;exitDy=0;exitPerimeter=0;" parent="1" source="f7Zuc8apwFJZ10PAn6E1-2" target="f7Zuc8apwFJZ10PAn6E1-68" edge="1">
          <mxGeometry relative="1" as="geometry">
            <mxPoint x="100.00000000000011" y="85" as="targetPoint" />
          </mxGeometry>
        </mxCell>
        <mxCell id="f7Zuc8apwFJZ10PAn6E1-92" style="rounded=0;orthogonalLoop=1;jettySize=auto;html=1;exitX=0.5;exitY=0.5;exitDx=0;exitDy=0;exitPerimeter=0;entryX=0;entryY=0.5;entryDx=0;entryDy=0;endArrow=none;endFill=0;" parent="1" source="f7Zuc8apwFJZ10PAn6E1-2" target="T0YTknENs9B_ywHw3JEK-5" edge="1">
          <mxGeometry relative="1" as="geometry">
            <mxPoint x="130.0000000000001" y="180" as="targetPoint" />
          </mxGeometry>
        </mxCell>
        <mxCell id="f7Zuc8apwFJZ10PAn6E1-15" value="" style="rounded=0;orthogonalLoop=1;jettySize=auto;html=1;exitX=0.5;exitY=0.5;exitDx=0;exitDy=0;exitPerimeter=0;endArrow=none;endFill=0;entryX=1;entryY=0.5;entryDx=0;entryDy=0;" parent="1" source="f7Zuc8apwFJZ10PAn6E1-1" target="f7Zuc8apwFJZ10PAn6E1-69" edge="1">
          <mxGeometry relative="1" as="geometry">
            <mxPoint x="239" y="190" as="sourcePoint" />
            <mxPoint x="340.1737230488843" y="93.29940279656557" as="targetPoint" />
          </mxGeometry>
        </mxCell>
        <mxCell id="f7Zuc8apwFJZ10PAn6E1-2" value="Преподаватель" style="shape=umlActor;verticalLabelPosition=bottom;verticalAlign=top;html=1;outlineConnect=0;" parent="1" vertex="1">
          <mxGeometry x="30" y="50" width="30" height="60" as="geometry" />
        </mxCell>
        <mxCell id="_Gf0fzwr_K4EokXnlh5w-2" value="ИС «Тренажер по математическому моделированию»&amp;nbsp;" style="shape=umlFrame;whiteSpace=wrap;html=1;pointerEvents=0;recursiveResize=0;container=1;collapsible=0;width=320;height=30;" parent="1" vertex="1">
          <mxGeometry x="89" y="20" width="711" height="370" as="geometry" />
        </mxCell>
        <mxCell id="f7Zuc8apwFJZ10PAn6E1-63" value="Посмотреть статистику" style="ellipse;whiteSpace=wrap;html=1;" parent="_Gf0fzwr_K4EokXnlh5w-2" vertex="1">
          <mxGeometry x="500" y="80" width="199" height="50" as="geometry" />
        </mxCell>
        <mxCell id="f7Zuc8apwFJZ10PAn6E1-69" value="Открыть тренажеры" style="ellipse;whiteSpace=wrap;html=1;" parent="_Gf0fzwr_K4EokXnlh5w-2" vertex="1">
          <mxGeometry x="500" y="160" width="199" height="50" as="geometry" />
        </mxCell>
        <mxCell id="f7Zuc8apwFJZ10PAn6E1-94" style="rounded=0;orthogonalLoop=1;jettySize=auto;html=1;dashed=1;entryX=0.5;entryY=0;entryDx=0;entryDy=0;" parent="_Gf0fzwr_K4EokXnlh5w-2" source="f7Zuc8apwFJZ10PAn6E1-69" target="T0YTknENs9B_ywHw3JEK-6" edge="1">
          <mxGeometry relative="1" as="geometry">
            <mxPoint x="117.99999999999955" y="271.25" as="sourcePoint" />
            <mxPoint x="241.00000000000023" y="271.875" as="targetPoint" />
          </mxGeometry>
        </mxCell>
        <mxCell id="f7Zuc8apwFJZ10PAn6E1-95" value="includ" style="edgeLabel;html=1;align=center;verticalAlign=middle;resizable=0;points=[];labelBackgroundColor=none;" parent="f7Zuc8apwFJZ10PAn6E1-94" vertex="1" connectable="0">
          <mxGeometry x="-0.1973" relative="1" as="geometry">
            <mxPoint as="offset" />
          </mxGeometry>
        </mxCell>
        <mxCell id="f7Zuc8apwFJZ10PAn6E1-88" style="rounded=0;orthogonalLoop=1;jettySize=auto;html=1;entryX=1;entryY=0.5;entryDx=0;entryDy=0;dashed=1;exitX=0;exitY=0.5;exitDx=0;exitDy=0;" parent="_Gf0fzwr_K4EokXnlh5w-2" source="T0YTknENs9B_ywHw3JEK-1" target="T0YTknENs9B_ywHw3JEK-5" edge="1">
          <mxGeometry relative="1" as="geometry">
            <mxPoint x="352" y="370" as="sourcePoint" />
          </mxGeometry>
        </mxCell>
        <mxCell id="f7Zuc8apwFJZ10PAn6E1-89" value="extend" style="edgeLabel;html=1;align=center;verticalAlign=middle;resizable=0;points=[];" parent="f7Zuc8apwFJZ10PAn6E1-88" vertex="1" connectable="0">
          <mxGeometry x="-0.1973" relative="1" as="geometry">
            <mxPoint as="offset" />
          </mxGeometry>
        </mxCell>
        <mxCell id="T0YTknENs9B_ywHw3JEK-1" value="Редактировать тренажер" style="ellipse;whiteSpace=wrap;html=1;" parent="_Gf0fzwr_K4EokXnlh5w-2" vertex="1">
          <mxGeometry x="306" y="110" width="169" height="50" as="geometry" />
        </mxCell>
        <mxCell id="T0YTknENs9B_ywHw3JEK-2" value="Посмотреть статистику учеников" style="ellipse;whiteSpace=wrap;html=1;" parent="_Gf0fzwr_K4EokXnlh5w-2" vertex="1">
          <mxGeometry x="33.5" y="80" width="209" height="50" as="geometry" />
        </mxCell>
        <mxCell id="f7Zuc8apwFJZ10PAn6E1-68" value="Изменить информацию в профиле" style="ellipse;whiteSpace=wrap;html=1;" parent="_Gf0fzwr_K4EokXnlh5w-2" vertex="1">
          <mxGeometry x="260" y="35" width="217" height="55" as="geometry" />
        </mxCell>
        <mxCell id="T0YTknENs9B_ywHw3JEK-5" value="Открыть тренажеры" style="ellipse;whiteSpace=wrap;html=1;" parent="_Gf0fzwr_K4EokXnlh5w-2" vertex="1">
          <mxGeometry x="31" y="150" width="209" height="50" as="geometry" />
        </mxCell>
        <mxCell id="T0YTknENs9B_ywHw3JEK-6" value="Решить тренажер" style="ellipse;whiteSpace=wrap;html=1;" parent="_Gf0fzwr_K4EokXnlh5w-2" vertex="1">
          <mxGeometry x="500" y="260" width="199" height="50" as="geometry" />
        </mxCell>
        <mxCell id="T0YTknENs9B_ywHw3JEK-8" value="Добавить тренажер" style="ellipse;whiteSpace=wrap;html=1;" parent="_Gf0fzwr_K4EokXnlh5w-2" vertex="1">
          <mxGeometry x="33.5" y="260" width="204" height="50" as="geometry" />
        </mxCell>
        <mxCell id="thA1IVUi15eVknn34z19-3" value="Удалить тренажер" style="ellipse;whiteSpace=wrap;html=1;" parent="_Gf0fzwr_K4EokXnlh5w-2" vertex="1">
          <mxGeometry x="310" y="180" width="167" height="50" as="geometry" />
        </mxCell>
        <mxCell id="thA1IVUi15eVknn34z19-4" style="rounded=0;orthogonalLoop=1;jettySize=auto;html=1;entryX=0.5;entryY=1;entryDx=0;entryDy=0;dashed=1;exitX=0.5;exitY=0;exitDx=0;exitDy=0;" parent="_Gf0fzwr_K4EokXnlh5w-2" source="T0YTknENs9B_ywHw3JEK-8" target="T0YTknENs9B_ywHw3JEK-5" edge="1">
          <mxGeometry relative="1" as="geometry">
            <mxPoint x="410" y="120" as="sourcePoint" />
            <mxPoint x="150" y="140" as="targetPoint" />
          </mxGeometry>
        </mxCell>
        <mxCell id="thA1IVUi15eVknn34z19-5" value="extend" style="edgeLabel;html=1;align=center;verticalAlign=middle;resizable=0;points=[];labelBackgroundColor=none;" parent="thA1IVUi15eVknn34z19-4" vertex="1" connectable="0">
          <mxGeometry x="-0.1973" relative="1" as="geometry">
            <mxPoint as="offset" />
          </mxGeometry>
        </mxCell>
        <mxCell id="thA1IVUi15eVknn34z19-6" style="rounded=0;orthogonalLoop=1;jettySize=auto;html=1;entryX=1;entryY=0.5;entryDx=0;entryDy=0;dashed=1;exitX=0;exitY=0.5;exitDx=0;exitDy=0;" parent="_Gf0fzwr_K4EokXnlh5w-2" source="thA1IVUi15eVknn34z19-3" target="T0YTknENs9B_ywHw3JEK-5" edge="1">
          <mxGeometry relative="1" as="geometry">
            <mxPoint x="172" y="340" as="sourcePoint" />
            <mxPoint x="172" y="240" as="targetPoint" />
          </mxGeometry>
        </mxCell>
        <mxCell id="thA1IVUi15eVknn34z19-7" value="extend" style="edgeLabel;html=1;align=center;verticalAlign=middle;resizable=0;points=[];" parent="thA1IVUi15eVknn34z19-6" vertex="1" connectable="0">
          <mxGeometry x="-0.1973" relative="1" as="geometry">
            <mxPoint as="offset" />
          </mxGeometry>
        </mxCell>
        <mxCell id="thA1IVUi15eVknn34z19-8" value="Считать из файла" style="ellipse;whiteSpace=wrap;html=1;" parent="_Gf0fzwr_K4EokXnlh5w-2" vertex="1">
          <mxGeometry x="310" y="240" width="167" height="50" as="geometry" />
        </mxCell>
        <mxCell id="thA1IVUi15eVknn34z19-9" style="rounded=0;orthogonalLoop=1;jettySize=auto;html=1;dashed=1;entryX=0;entryY=0.5;entryDx=0;entryDy=0;exitX=1;exitY=0.5;exitDx=0;exitDy=0;" parent="_Gf0fzwr_K4EokXnlh5w-2" source="T0YTknENs9B_ywHw3JEK-8" target="thA1IVUi15eVknn34z19-8" edge="1">
          <mxGeometry relative="1" as="geometry">
            <mxPoint x="260" y="310" as="sourcePoint" />
            <mxPoint x="260" y="360" as="targetPoint" />
          </mxGeometry>
        </mxCell>
        <mxCell id="thA1IVUi15eVknn34z19-10" value="includ" style="edgeLabel;html=1;align=center;verticalAlign=middle;resizable=0;points=[];" parent="thA1IVUi15eVknn34z19-9" vertex="1" connectable="0">
          <mxGeometry x="-0.1973" relative="1" as="geometry">
            <mxPoint as="offset" />
          </mxGeometry>
        </mxCell>
        <mxCell id="thA1IVUi15eVknn34z19-12" value="Ввести вручную" style="ellipse;whiteSpace=wrap;html=1;" parent="_Gf0fzwr_K4EokXnlh5w-2" vertex="1">
          <mxGeometry x="308" y="300" width="167" height="50" as="geometry" />
        </mxCell>
        <mxCell id="thA1IVUi15eVknn34z19-13" style="rounded=0;orthogonalLoop=1;jettySize=auto;html=1;dashed=1;entryX=0.01;entryY=0.408;entryDx=0;entryDy=0;exitX=1;exitY=0.5;exitDx=0;exitDy=0;entryPerimeter=0;" parent="_Gf0fzwr_K4EokXnlh5w-2" source="T0YTknENs9B_ywHw3JEK-8" target="thA1IVUi15eVknn34z19-12" edge="1">
          <mxGeometry relative="1" as="geometry">
            <mxPoint x="248" y="295" as="sourcePoint" />
            <mxPoint x="320" y="275" as="targetPoint" />
          </mxGeometry>
        </mxCell>
        <mxCell id="thA1IVUi15eVknn34z19-14" value="includ" style="edgeLabel;html=1;align=center;verticalAlign=middle;resizable=0;points=[];" parent="thA1IVUi15eVknn34z19-13" vertex="1" connectable="0">
          <mxGeometry x="-0.1973" relative="1" as="geometry">
            <mxPoint as="offset" />
          </mxGeometry>
        </mxCell>
      </root>
    </mxGraphModel>
  </diagram>
</mxfile>
